<svg width="154" height="44" viewBox="0 0 154 44" fill="none" xmlns="http://www.w3.org/2000/svg">
<path d="M29.5223 21.3617C29.5309 22.0415 29.2758 22.698 28.8112 23.192C28.3465 23.686 27.7088 23.9787 27.0331 24.008C23.96 24.008 21.8601 23.4108 20.4977 22.134C17.8959 24.1213 14.956 24.8627 10.1211 24.8627C3.75983 24.8627 1.12725 22.6694 0.901894 18.4065C0.871124 15.9656 1.31297 13.542 2.20282 11.2707L5.56269 12.2078C5.2177 13.5002 5.00828 14.8255 4.93784 16.1618C4.93784 19.4259 7.1197 19.5701 11.4117 19.5701C13.8865 19.6772 16.3555 19.2525 18.6539 18.3241C18.5225 17.5379 18.4506 16.7427 18.4388 15.9455L18.3773 12.2489L22.0855 11.8268L22.4235 15.3277C22.7103 18.1388 23.0996 18.736 27.0331 18.736C27.7069 18.7602 28.3447 19.0484 28.8098 19.5391C29.275 20.0298 29.5307 20.684 29.5223 21.3617ZM9.4962 11.9297L6.87386 9.28343V9.17016L9.4962 6.55474H9.61912L11.1659 8.11988L13.317 5.95752H13.4297L16.0623 8.57294V8.73769L13.4297 11.384H13.317L11.7907 9.76739L9.61912 11.9297H9.4962Z" fill="#FFA200"/>
<path d="M34.4082 32.0191L42.5518 30.3613L42.7259 32.6369L34.5311 34.2536L34.4082 32.0191Z" fill="#FFA200"/>
<path d="M27.0324 18.7462H27.9338C30.9725 18.8754 33.9975 18.268 36.7535 16.9751C37.6652 16.553 38.6281 16.0381 39.8265 15.4203C38.4129 14.7304 37.6139 14.3906 36.9993 14.1332C36.0754 13.6544 35.0652 13.3673 34.0287 13.2888C33.0044 13.2888 32.1029 14.0199 30.9557 15.8734L27.9953 13.8861C29.9723 9.05679 32.3181 8.20215 33.8034 8.20215C35.5455 8.30324 37.251 8.74757 38.8227 9.50986C39.7856 9.91144 40.8714 10.3954 42.1313 10.9926C43.7232 11.7643 45.3542 12.4517 47.0175 13.052L46.1468 17.8504C45.2351 17.8504 44.7025 17.768 44.2825 17.768C43.6948 17.7676 43.1244 17.9673 42.664 18.3343C41.3631 19.189 40.1543 19.8995 39.048 20.5276C34.6126 23.0297 31.4371 23.9976 27.7085 23.9976H27.0631C26.391 23.9657 25.7574 23.6733 25.2952 23.1818C24.833 22.6903 24.5782 22.0379 24.5842 21.3616C24.5755 20.6917 24.8259 20.0446 25.2826 19.5567C25.7393 19.0688 26.3667 18.7782 27.0324 18.7462ZM35.8521 27.2721V27.1588L38.4846 24.5434H38.5973L41.2299 27.1588V27.2721L38.5666 29.9493H38.4539L35.8521 27.2721Z" fill="#FFA200"/>
<path d="M82.4808 21.3615C82.4894 22.0413 82.2344 22.6977 81.7697 23.1917C81.305 23.6857 80.6673 23.9784 79.9916 24.0078C76.9186 24.0078 74.8699 23.4106 73.4563 22.1338C70.8544 24.1211 67.9145 24.8625 63.0796 24.8625C56.7184 24.8625 54.0858 22.6692 53.8604 18.4063C53.8348 15.9658 54.2765 13.5432 55.1613 11.2705L58.5315 12.2075C58.1865 13.5 57.9771 14.8252 57.9066 16.1616C57.9066 19.4257 60.0885 19.5698 64.3805 19.5698C66.8552 19.677 69.3242 19.2523 71.6227 18.3239C71.4878 17.5379 71.4125 16.7428 71.3973 15.9453L71.3358 12.2487L75.044 11.8265L75.382 15.3275C75.6586 18.1386 76.0581 18.7358 79.9916 18.7358C80.6655 18.7599 81.3032 19.0482 81.7684 19.5389C82.2335 20.0296 82.4892 20.6837 82.4808 21.3615ZM66.1629 26.7056L68.734 29.3313V29.4446L66.0502 32.0394H65.9375L64.4112 30.4434L62.2089 32.5749H62.0962L59.5148 29.9183V29.805L62.1782 27.2719H62.2908L63.8171 28.868L66.0502 26.7365L66.1629 26.7056ZM64.4625 31.9673L66.839 34.4077V34.4798L64.3498 36.8996H64.2678L61.8606 34.4798V34.3665L64.3498 32.0085L64.4625 31.9673Z" fill="#005FF0"/>
<path d="M80.1556 24.0078H79.9917C79.3259 23.9659 78.701 23.6705 78.2442 23.1817C77.7875 22.6929 77.5332 22.0475 77.5332 21.3769C77.5332 20.7063 77.7875 20.0609 78.2442 19.5721C78.701 19.0833 79.3259 18.7879 79.9917 18.746H80.0737C83.7818 18.746 85.7281 18.1797 85.7281 16.6867C85.5251 14.5849 85.0888 12.5126 84.4272 10.5085L88.8114 8.94336C89.4152 11.3987 89.7586 13.9115 89.8357 16.4395C89.9382 21.3306 86.6295 24.0078 80.1556 24.0078ZM84.5398 26.2422L87.1724 28.8473V28.9709L84.5398 31.6378H84.4272L82.8702 30.083L80.6985 32.2762H80.5859L77.9533 29.6299V29.5166L80.5859 26.9012H80.6985L82.2555 28.4355L84.4272 26.2422H84.5398Z" fill="#005FF0"/>
<path d="M89.6302 27.2719C94.5471 26.5614 96.4729 25.0477 96.4729 21.8145C96.4729 20.0228 95.7968 17.6339 94.7519 14.3904L99.1259 12.4546L99.9454 15.4407C100.714 18.2621 101.257 18.7975 103.602 18.7975C104.273 18.8217 104.909 19.1088 105.372 19.5976C105.835 20.0863 106.09 20.7379 106.081 21.4129C106.093 22.0918 105.84 22.7482 105.377 23.2425C104.914 23.7368 104.277 24.0298 103.602 24.0592C102.576 24.0789 101.556 23.8934 100.601 23.5135C100.382 25.3032 99.6728 26.9965 98.5523 28.4045C96.8621 30.4639 94.1476 31.5863 90.2448 31.5863C89.876 31.5863 89.5073 31.5863 89.1385 31.5863L88.9746 27.2719C89.2102 27.2719 89.4356 27.2719 89.6302 27.2719Z" fill="#005FF0"/>
<path d="M103.85 27.4164L112.044 25.7998L112.219 28.0651L104.024 29.692L103.85 27.4164Z" fill="#005FF0"/>
<path d="M113.16 16.4398C113.273 21.3309 109.964 24.0081 103.767 24.0081H103.603C102.937 23.9662 102.312 23.6708 101.856 23.182C101.399 22.6932 101.145 22.0478 101.145 21.3772C101.145 20.7066 101.399 20.0612 101.856 19.5724C102.312 19.0836 102.937 18.7882 103.603 18.7463H103.685C107.106 18.7463 109.053 18.18 109.053 16.6869C108.85 14.5852 108.413 12.5129 107.752 10.5088L112.136 8.92306C112.74 11.3853 113.083 13.9049 113.16 16.4398ZM113.355 4.36152V4.47478L110.722 7.12109H110.63L109.073 5.53537L106.881 7.70802H106.768L104.136 5.06171V4.95874L106.768 2.34332H106.881L108.438 3.90845L110.63 1.74609H110.743L113.355 4.36152Z" fill="#005FF0"/>
<g clip-path="url(#clip0_5159_19701)">
<path d="M153.312 16.5198C153.312 19.3022 152.542 22.0161 151.088 24.3717L139.839 41.6655C139.677 41.8545 139.489 42.0207 139.281 42.1575C138.845 42.4377 138.352 42.5778 137.863 42.5778C137.179 42.5778 136.508 42.3106 136.005 41.7926L135.972 41.7503L129.031 31.1648L133.305 28.4443L137.836 35.3514L141.581 29.5292L146.916 21.3938C146.976 21.3091 147.039 21.2212 147.085 21.1299L147.105 21.1039C147.928 19.6215 148.371 17.924 148.371 16.2103C148.371 15.6303 148.321 15.0536 148.222 14.503C148.004 13.1998 147.528 11.965 146.814 10.8279C144.907 7.80118 141.611 5.98969 138.002 5.98969C134.531 5.98969 131.308 7.68714 129.378 10.5347C128.631 11.6261 128.118 12.8316 127.844 14.1283C127.702 14.8028 127.632 15.5033 127.632 16.2103C127.632 18.1586 128.184 20.0417 129.232 21.6643L134.062 18.5886L130.753 16.4774C129.788 15.7346 129.569 14.389 130.231 13.3985C130.895 12.4146 132.194 12.0823 133.252 12.6329L133.592 12.8447L138.332 15.8649L142.725 13.0695C143.789 12.4798 145.141 12.8023 145.809 13.8025C146.473 14.7897 146.269 16.0995 145.333 16.8488L145.307 16.8684L127.223 28.4019L124.707 24.5607C124.433 24.1371 124.188 23.6647 123.957 23.1043C122.899 20.5076 122.688 18.6603 122.688 16.5165C122.688 14.8256 122.968 13.1672 123.524 11.5936C123.973 10.3066 124.595 9.08811 125.378 7.97059C128.241 3.87194 132.954 1.42188 137.998 1.42188C143.191 1.42188 147.987 3.98598 150.827 8.28011C151.587 9.43021 152.182 10.665 152.598 11.9585C153.071 13.4279 153.312 14.9624 153.312 16.5198Z" fill="#FFA200"/>
</g>
<defs>
<clipPath id="clip0_5159_19701">
<rect width="32" height="43" fill="white" transform="translate(122 0.5)"/>
</clipPath>
</defs>
</svg>
